<svg id="Layer_1" data-name="Layer 1" xmlns="http://www.w3.org/2000/svg" viewBox="0 0 144 144"><defs><style>.cls-1{fill:none;stroke:#000;stroke-linecap:round;stroke-miterlimit:10;stroke-width:4px;}</style></defs><title>eyes</title><path class="cls-1" d="M55.93,27.9l-.08-.25c-.07-.2-.15-.4-.23-.6s-.26-.6-.41-.88-.41-.75-.63-1.1a15.1,15.1,0,0,0-.88-1.24,15.83,15.83,0,0,0-1.16-1.32,16.58,16.58,0,0,0-1.48-1.34,17.65,17.65,0,0,0-1.83-1.28A19.36,19.36,0,0,0,47,18.72a22,22,0,0,0-2.64-1,26,26,0,0,0-3.1-.72,31.72,31.72,0,0,0-3.58-.39,32.94,32.94,0,0,0-4.11,0,30.77,30.77,0,0,0-3.51.44,25.34,25.34,0,0,0-3,.76,21.58,21.58,0,0,0-2.58,1,19.07,19.07,0,0,0-2.16,1.18,17.47,17.47,0,0,0-1.78,1.29,16.46,16.46,0,0,0-1.43,1.34A15.74,15.74,0,0,0,18,24c-.3.39-.58.8-.84,1.23s-.41.7-.6,1.07-.27.56-.38.85-.14.37-.21.56l-.06.2"/><circle cx="35.64" cy="23.39" r="6.79"/><line class="cls-1" x1="11" y1="17.81" x2="17.79" y2="23.39"/><line class="cls-1" x1="56.12" y1="27.85" x2="63.92" y2="23.8"/><line class="cls-1" x1="53.57" y1="23.09" x2="60.55" y2="17.76"/><line class="cls-1" x1="49.46" y1="19.17" x2="54.91" y2="12.28"/><line class="cls-1" x1="44.47" y1="17.44" x2="47.36" y2="9.14"/><line class="cls-1" x1="38.87" y1="15.74" x2="39.72" y2="7"/><line class="cls-1" x1="32.39" y1="15.92" x2="31.58" y2="7.17"/><line class="cls-1" x1="27.03" y1="17.07" x2="24.05" y2="8.81"/><line class="cls-1" x1="21.5" y1="19.51" x2="17.04" y2="11.94"/><path class="cls-1" d="M80.09,20.07l.08.25c.07.2.15.4.23.6s.26.6.41.88.41.75.63,1.1a15.1,15.1,0,0,0,.88,1.24,15.83,15.83,0,0,0,1.16,1.32A16.58,16.58,0,0,0,85,26.81a17.65,17.65,0,0,0,1.83,1.28A19.36,19.36,0,0,0,89,29.25a22,22,0,0,0,2.64,1,26,26,0,0,0,3.1.72,31.72,31.72,0,0,0,3.58.39,32.94,32.94,0,0,0,4.11,0,30.77,30.77,0,0,0,3.51-.44,25.34,25.34,0,0,0,3-.76,21.58,21.58,0,0,0,2.58-1,19.07,19.07,0,0,0,2.16-1.18,17.47,17.47,0,0,0,1.78-1.29,16.46,16.46,0,0,0,1.43-1.34A15.74,15.74,0,0,0,118.05,24c.3-.39.58-.8.84-1.23s.41-.7.6-1.07.27-.56.38-.85.14-.37.21-.56l.06-.2"/><line class="cls-1" x1="125.01" y1="30.16" x2="118.22" y2="24.59"/><line class="cls-1" x1="79.9" y1="20.13" x2="72.1" y2="24.17"/><line class="cls-1" x1="82.45" y1="24.88" x2="75.46" y2="30.21"/><line class="cls-1" x1="86.56" y1="28.8" x2="81.11" y2="35.69"/><line class="cls-1" x1="91.55" y1="30.54" x2="88.66" y2="38.83"/><line class="cls-1" x1="97.14" y1="32.23" x2="96.29" y2="40.97"/><line class="cls-1" x1="103.63" y1="32.05" x2="104.44" y2="40.8"/><line class="cls-1" x1="108.99" y1="30.9" x2="111.96" y2="39.17"/><line class="cls-1" x1="114.51" y1="28.46" x2="118.98" y2="36.03"/></svg>