<svg id="Layer_1" data-name="Layer 1" xmlns="http://www.w3.org/2000/svg" viewBox="0 0 1000 1000"><defs><style>.cls-1{fill:#fff;}</style></defs><title>lips</title><path d="M111.76,502.32c-.27-1-.46-1.95-.82-2.87-2.92-7.52,1.78-13.93,9.78-13.21a38.46,38.46,0,0,1,6.33,1.14,151,151,0,0,1,34.64,14,51,51,0,0,1,5.37,3.55,5.15,5.15,0,0,1,2.25,3.48c.3,1.92,1.17,2.46,3,2a27.14,27.14,0,0,0,5.43-2.06c9.34-4.81,19.24-6,29.52-4.7a26.23,26.23,0,0,1,9.87,3.16c3.79,2.16,6.36,1.84,9.87-.93a10.11,10.11,0,0,1,2.54-1.67,29.33,29.33,0,0,1,21.28,0,11.27,11.27,0,0,1,3.57,2.31,7.41,7.41,0,0,0,8,1.6,28.69,28.69,0,0,0,4-1.61,33.44,33.44,0,0,1,21.49-2.95,23.57,23.57,0,0,1,6.33,2.2,5.26,5.26,0,0,1,3.13,6.06,10,10,0,0,0-.15,2.14c.11,3.3,2,4.61,4.83,3a30.73,30.73,0,0,0,6.5-5,18.3,18.3,0,0,1,12.5-5.73,72.06,72.06,0,0,1,19.82,1.64,23.45,23.45,0,0,1,5.19,1.84c3.85,1.9,5.48,4.75,4.89,9a31.2,31.2,0,0,1-2,7.36c-1.46,3.6-3.28,7-4.91,10.57-.37.8-.61,1.66-.92,2.49A30.35,30.35,0,0,0,353,524.75a3.2,3.2,0,0,1,2.85-2.37,8.81,8.81,0,0,1,9.31,5c1.48,2.85,2.38,3.1,4.93,1.29.66-.47,1.22-1.09,1.87-1.59a42.38,42.38,0,0,1,4.42-3.28c2.82-1.64,4.84-1.06,6.36,1.81a39.94,39.94,0,0,1,2,5.14c1.42,3.9,3.47,5.35,7.64,5.26,1.22,0,2.44-.21,3.66-.34,2.23-.23,4.46-.65,6.7-.67a13.28,13.28,0,0,1,10.86,4.76,14,14,0,0,0,1.75,1.72c2.14,1.8,3.77,1.89,6.12.29,1.1-.75,2-1.75,3.17-2.42,2-1.18,4-2.6,6.18-3.21,6.66-1.87,13.2-.94,19.46,1.82a22,22,0,0,1,5.13,3.28,7.35,7.35,0,0,1,2.73,7.38c-.34,1.81-.59,3.64-.81,5.47-.86,7.31-1.7,14.63-2.49,22-.08.75-.55,1.75.63,2.49.38-1.24.71-2.3,1-3.37,1.46-4.9,2.8-9.84,4.4-14.7a62.7,62.7,0,0,1,3.41-8.2,10.2,10.2,0,0,1,8.55-5.69,31.83,31.83,0,0,1,3.67-.19q8.59,0,17.18.15a18,18,0,0,1,2.11.28c-.16,1.34-.28,2.45-.44,3.56q-2.78,20.22-5.55,40.44a22.83,22.83,0,0,0-.26,4.58,7.38,7.38,0,0,0,2.22,5.23c2,1.82,3.85,1.54,4.73-1a23.18,23.18,0,0,0,1.23-6c.37-5.61.55-11.23.78-16.85.32-7.88.81-15.76,3.1-23.36a34.68,34.68,0,0,1,3.55-8.1c2.54-4.13,5.58-5,10.28-3.65,3.34,1,6.68,2,10.08,2.66a15.71,15.71,0,0,1,8.53,4.51c1.57,1.59,2.88,3.43,4.35,5.13.95,1.09,1.52,2.65,3.56,3,.13-1.12.31-2.1.33-3.09,0-1.53-.06-3.07,0-4.6.08-5.36,1.79-7.43,7-8.41a26.57,26.57,0,0,1,21.75,5,34,34,0,0,1,10.63,13.28c1.73,3.81,2.9,7.86,4.59,11.69a76.11,76.11,0,0,0,4.93,9.48c1.11,1.79,3.22,1.4,4.1-.54a5.83,5.83,0,0,0,.51-2.67,27.76,27.76,0,0,0-.75-5.14c-1.38-5.28-3.85-10.1-6.21-15a156.57,156.57,0,0,1-6.61-15.48c-1.75-4.9-.41-7.59,4.07-10.21a30.49,30.49,0,0,1,11.92-3.77c5.37-.64,10.78-1,16.19-1.27,4.91-.23,9.82-.34,14.6-1.62a8.2,8.2,0,0,0,4.83-3,6.79,6.79,0,0,1,3.46-2.27,22.64,22.64,0,0,1,6.35-.84c8.81.18,17.07,2,23.53,8.65.93,1,2,2.1,4,1.82.15-1.42.32-2.8.44-4.18.26-2.94,1.23-4.31,4.06-5a24.6,24.6,0,0,1,5.44-.8,76.84,76.84,0,0,1,32.25,6.44,27.57,27.57,0,0,1,4,2.21,5.13,5.13,0,0,1,2.75,3.49,2.8,2.8,0,0,0,1.17,1.69,10.19,10.19,0,0,0,8.94.9c.16-2-1.12-2.92-2.1-3.88-1.9-1.85-4-3.48-5.87-5.39a26.54,26.54,0,0,1-3.94-5c-1.53-2.64-.6-4.51,2.38-5.22a13.54,13.54,0,0,1,3.94-.44,53.94,53.94,0,0,1,8.22.93c5,1.1,9.91,2.51,14.86,3.79,11.72,3,23.55,5.4,35.71,5.48,7.31.05,13.06,2.84,17.14,9,2.38,3.57,4.85,7.09,7.28,10.63l5.22,7.64.58-.24c-.11-1-.19-2-.32-2.93-.75-5.47-1.57-10.93-2.25-16.41a46.86,46.86,0,0,1-.32-6.42,6.92,6.92,0,0,1,3.28-6,63,63,0,0,1,19.89-8.6,7.33,7.33,0,0,1,7.09,1.88,4.66,4.66,0,0,0,6.19.56,32.48,32.48,0,0,0,4.6-3.54c4.59-4.21,9.76-7,16.15-7.23a10.21,10.21,0,0,0,4.1-1.07,4.28,4.28,0,0,0,2.14-2.37c.65-2.69,2.44-3.43,4.86-3.87a44.17,44.17,0,0,0,8-2.13c3.91-1.5,7.67-3.37,11.52-5,2.41-1,5-1.59,7.45-.5A24.8,24.8,0,0,1,918,497.7a4.18,4.18,0,0,1-.29,5.12c-1.47,1.83-2.92,3.69-4.55,5.38a155.94,155.94,0,0,1-21.15,18.15,137.94,137.94,0,0,1-15,9.55c-3.63,2-7.22,3.89-10.21,6.7a93,93,0,0,0-7.23,7.87c-3.18,3.76-6.43,6.93-12,4.94-1.78-.63-3,.15-3.52,2a22,22,0,0,0-.8,5.43,16.79,16.79,0,0,1-3.84,10.47,30.92,30.92,0,0,1-5.43,5.36,104.89,104.89,0,0,0-25.44,26.75c-2.33,3.48-4.71,7-7.32,10.22a128.15,128.15,0,0,1-8.53,9.61,14.44,14.44,0,0,1-10.27,4.15c-1.43,0-2.86.07-4.29.15a8.33,8.33,0,0,0-7.53,5c-1.09,2.3-1.91,4.73-2.8,7.12s-1.66,5.06-2.71,7.49a18.34,18.34,0,0,1-6.43,8c-4,2.73-8.15,1.63-10.19-2.73-.52-1.1-.78-2.32-1.21-3.47-.22-.59-.54-1.14-.82-1.71l-.63,0c-.23,1.46-.43,2.93-.7,4.38a52.78,52.78,0,0,1-1.53,7.79,40.87,40.87,0,0,1-12.53,18.24c-2.76,2.32-5.83,4.12-9.63,4.31a7.39,7.39,0,0,0-3.18,1,49.61,49.61,0,0,0-7.5,4.74c-4.52,3.82-8.89,7.84-13.1,12-7.77,7.65-16,14.66-25.95,19.32a31.27,31.27,0,0,1-13,3.27,21.69,21.69,0,0,0-11.75,4,49.92,49.92,0,0,0-5.51,4.39c-5.61,4.91-12,8.21-19.45,9-7,.76-10.21-1.5-11.31-8.47-.84-5.33-1.05-10.77-1.47-16.16-.28-3.67-.4-7.34-.69-11-.1-1.27-.24-2.64-1.71-3.52a6.19,6.19,0,0,0-1.67,4.5c-.27,5-.51,10-.49,15a47.27,47.27,0,0,1-1.75,14.56,23.1,23.1,0,0,1-5,9.05c-5,5.32-11.43,5.64-16.9.83a27.12,27.12,0,0,1-6.8-10.09c-1.44-3.38-2.69-6.85-4.07-10.26-.42-1.05-1-2-1.48-3.07a6.69,6.69,0,0,0-.75,3.16c-.14,3.78-.2,7.57-.4,11.35a27.18,27.18,0,0,1-2.27,10.12,10.8,10.8,0,0,1-7.95,6.57,33.28,33.28,0,0,1-22.06-3,9.26,9.26,0,0,1-4.49-4.85,41.76,41.76,0,0,1-1.93-4.84c-1.43-5.22-2.71-10.48-4.05-15.73-.26-1-.5-2-.75-3a6.42,6.42,0,0,0-.78,3.1c-.17,3.58-.24,7.16-.51,10.73a42.85,42.85,0,0,1-1,6.35,9.73,9.73,0,0,1-6.37,7.32,20.67,20.67,0,0,1-5.92,1.44c-5.61.28-11.23.43-16.84.28a34.67,34.67,0,0,1-7.81-1.52,15,15,0,0,1-8.38-5.35,11.29,11.29,0,0,0-1.67-1.79c-1.59-1.35-2.64-1.21-3.69.63a28.54,28.54,0,0,0-1.88,4.19,10,10,0,0,1-8.42,6.73,48.53,48.53,0,0,1-19.2-.65,17.82,17.82,0,0,1-12.45-10.88,43.36,43.36,0,0,1-3.41-14.88c-.54-9.9-.74-19.82-1.09-29.73,0-1.07-.1-2.13-.15-3.2h-.69q-.19,1.91-.39,3.82c-1.12,10.89-2.11,21.79-3.44,32.65a41.13,41.13,0,0,1-2.82,10.31c-4.48,11-22.65-4-27.69-8.58-.9-.82-2.24-1.71-3.21-1s-.51,2.3-.94,3.45c-.78,2.08-3.8,1.78-5.91,1.08-7.65-2.51-14.61-3.61-19.8-9.73-2.69-3.17-10-19.64-15.47-16.23-5.94,3.67-15.07-11.28-19.27-14.91a238.16,238.16,0,0,1-17.61-16.37c-3.3-3.49-7.5-6.8-10.48-10.52s-3.8-11.53-7.86-13.65c-5.82-3-10.41.22-16.62-4.72-5.44-4.33-9.69-10-14.69-14.76-10.26-9.83-20.33-19.85-31.84-28.29A30.59,30.59,0,0,1,216.37,597a52.44,52.44,0,0,1-1.91-5.16c-1.56-4.23-3.78-7.71-8.84-8.27a10.28,10.28,0,0,1-3.43-1.28A116.85,116.85,0,0,1,173.93,562a12.85,12.85,0,0,1-3.91-7.15c-.56-3.42-.88-6.88-1.35-10.32-.2-1.45.11-3.09-1.46-4.29-.4.56-.77,1-1.07,1.53-2.33,4-4.6,5-8.88,3.28a26.84,26.84,0,0,1-6.44-3.51c-5.49-4.25-11-8.53-16.13-13.19-6.57-5.95-13.6-11.51-18.49-19.11a5.47,5.47,0,0,0-1.14-1Zm357,178.9a91,91,0,0,0-1.51,11.86c-.27,11.34-.28,22.69-.27,34,0,1.95-.19,4.13,1.84,6a12.76,12.76,0,0,0,1.68-2.55c1-2.79,2.18-5.57,2.59-8.46a145.91,145.91,0,0,0,.18-38.85c-.46-3.62-.68-4-2.35-6.07C469.21,678.18,469,679.77,468.73,681.23ZM411.1,555.62c-1.92,3-3.81,6-5.48,9.2a75.76,75.76,0,0,0-7.49,19.7,15.42,15.42,0,0,0-.26,4.84c.18,1.61,1.44,1.92,2.61.75a13.37,13.37,0,0,0,2-2.66,116.83,116.83,0,0,0,12.09-28.06,22.69,22.69,0,0,0,.68-4.22,9.06,9.06,0,0,0-.4-2.27C412.78,553,411.89,554.37,411.1,555.62ZM667.53,663.24c1.26-.17,2.16-1.24,2.21-3.23a20.06,20.06,0,0,0-.6-5.09,2.13,2.13,0,0,0-1.78-1.1c-2.54.45-4.45,4.9-3.24,7.23A3.88,3.88,0,0,0,667.53,663.24Z"/><path d="M580.61,420.27s-.07,0-.07.08l.52,18.48c.06,2.3.11,4.7-.84,6.8-2,4.36-8.15,7.92-11.47,11.27-4.19,4.24-7.65,7.39-14.21,7.53A25,25,0,0,0,539.27,470c-3,2.33-5.59,5.1-8.55,7.43-4.48,3.52-9.39,5.82-15.35,4.31a6,6,0,0,1-4.81-4.62,42.45,42.45,0,0,1-1.2-7.24c-.4-8.07-.52-16.15-.93-24.21-.27-5.27-.78-12.76-3.17-17.25-2.14,4.64-1.32,9.9-1.44,14.89a223.7,223.7,0,0,1-2,22.28c-.48,3.81-1.13,8-4,10.53-5.07,4.52-13.29,2.37-17.86-1.59a36.45,36.45,0,0,1-9.08-13c-3-6.67-4.55-13.76-6.13-20.85-.26-1.17-.56-2.32-.84-3.48a6.19,6.19,0,0,0-.78,3,89.35,89.35,0,0,1-.57,9.18,36.31,36.31,0,0,1-2.43,8.49,11.14,11.14,0,0,1-7.85,6.33c-4.18,1.1-7.36-.2-9-4.2a32,32,0,0,1-2.21-7.94c-.71-5.4.87-13-2.45-17.57-3.88,4.22-1.42,12.55-5.21,16-3.38,3.11-10.88.48-15-.3-10.4-2-20.88-5.49-24.24-16.69l-4.85-16.18c-1.83-.41-2.68,2.17-2.71,4l-.13,9.82c-.14,9.92-5.32,14.87-15.19,16-15.76,1.78-31.91-1-47.47,2.14-7.78,1.55-15.32,4.55-23.24,4.94s-16.79-2.65-20.13-9.85a10.36,10.36,0,0,0-1.89-3.34c-4.15-3.94-3.6,6-3.83,7.64-.44,3-2,4.24-5,4.36-.92,0-1.84-.14-2.75-.11-2.85.1-5.71.11-8.54.43-4.35.49-8.14,2.63-12,4.42-8.43,3.87-16.37,3-23.63-2.68-3.2-2.51-6-5.48-9-8.3-3.17-3-6.24-6.18-9.45-9.17-1-.92-2.12-1.94-4-1.67a6.75,6.75,0,0,0,1.55,5.41,24,24,0,0,0,2.58,2.59c2.25,2.24,3.49,5,2.7,8.06-.74,2.84-3.7,2.8-6.07,3.27a3.83,3.83,0,0,1-.61.06c-3.37.13-6.74.4-10.11.35-9-.12-18-.52-27-.53a126.28,126.28,0,0,0-13.74,1,12.43,12.43,0,0,0-7.89,4.3A13.57,13.57,0,0,1,136.5,464a51.83,51.83,0,0,1-29.62,1.33c-6.44-1.54-8.32-4.66-6.36-11.08a50.54,50.54,0,0,1,19.92-27.18c6.69-4.7,13.35-9.45,19.86-14.38,5.84-4.42,11.94-8.27,19-10.27,6.24-1.75,11.08-4.89,13.27-11.48,1.06-3.19,3.35-5.58,7.14-5.9a6.29,6.29,0,0,0,4.84-2.93,32.05,32.05,0,0,0,3-6c1.67-4.48,3.61-5.87,8.32-5.37,2.13.23,4.24.71,6.37,1,4.41.52,6.63-1,6.48-5.43a6.71,6.71,0,0,1,.13-1.22c1-6.71,6.95-12.62,13.62-13,4.73-.3,8-2.66,10.87-6.05a31.64,31.64,0,0,1,4-4.19c6.38-5.21,13.55-9.15,20.93-12.73,12-5.81,23.92-11.6,34.36-20.08,4.27-3.47,9.25-4.71,14.7-2.74a11.84,11.84,0,0,0,3,.63c2.24.19,3.23-.53,3.79-2.67a7.41,7.41,0,0,0,.29-2.12c-.15-4.3,2.14-7.2,5.56-9.23a54.57,54.57,0,0,1,8.53-4.16c5.06-1.91,10.21-3.6,15.38-5.21a9,9,0,0,1,8.65,1.74,40.76,40.76,0,0,1,12.85,17.26,20.44,20.44,0,0,0,3.06,4.87,2.69,2.69,0,0,0,3.2,1.13c.51-2.08.6-2.7-.28-4.74-1.29-3-2.79-5.91-4.18-8.87-3.52-7.47-10.42-15.63-4.27-23.12s19.34-12.16,28.4-14.31c1.81-.43,3.76-.85,5-2.19a28.82,28.82,0,0,0,8.63-2.76,12.19,12.19,0,0,1,4.38-1.68c5-.39,7.29,5.14,12.4.43,2.13-2,3.69-4.63,6.26-6,4.55-2.35,9.92.39,14.63,2.42a52.79,52.79,0,0,0,12.4,3.63,27,27,0,0,1,6.65,1.52,21.46,21.46,0,0,1,3.58,2.18c5.76,4,11.07,6.45,14.85,12.27,4.37,6.72,10,14,13.87,20.93a31.88,31.88,0,0,0,3.4,2.78c.36-1.6.67-2.54.78-3.5.55-4.84,2.33-6.62,7.21-7s8.1-3,10-7.45c2.27-5.44,5.53-6.77,10.28-9.85,1.81,1.71,4.87,1.25,6.88-.21s3.32-3.68,4.86-5.64a26.93,26.93,0,0,1,24.07-9.85c6.48.82,12.58,4,19.12,4.12,9.24.12,17.89-.23,27.12,1.5,1.89.35,3.92.84,5.13,2.33,1.46,1.8,1.73,5,4,5.38,1.52.27,2.82-1,4.06-1.9,6.93-5.1,17.65,1.57,24.22,4.81,4.47,2.2,6.45,5.84,5.8,10.78-.45,3.45-1.08,6.87-1.6,10.31-.16,1-.21,2.07-.31,3.11l.75.23c.64-1.1,1.24-2.24,1.94-3.31,1.55-2.4,3-4.86,4.78-7.1a9.77,9.77,0,0,1,3.43-2.47,2,2,0,0,1,2.9,1.35,10.79,10.79,0,0,1,.32,1.81c.4,2.49,1.45,3.34,3.94,3.09a8.41,8.41,0,0,0,2.09-.47,12,12,0,0,1,9,.32,61.86,61.86,0,0,1,9.12,4.36c8.79,5.43,18.14,10.6,26.42,16.78,3.16,2.36,16.07,10,16.62,13.15.33,1.87-.78,3.65-1.56,5.38a16.88,16.88,0,0,0-1.3,9.27c3.92-.36,6.69-3.8,9.71-6.33,9.61-8.06,9.29,3.85,16,4.44,4.28.37,6.65,2.89,8.07,6.53a13,13,0,0,0,6.35,7.19,46.36,46.36,0,0,0,8.55,3.26c10.82,2.95,20.24,8.21,27.84,16.53,2.29,2.51,4.26,5.34,4.74,8.79.71,5,3.74,7.54,8.49,8.26,3.23.49,6.49.83,9.75,1.16a79.86,79.86,0,0,1,22.36,5.14,55.72,55.72,0,0,1,8.06,4.36,6.08,6.08,0,0,1,3,4.78,12.26,12.26,0,0,0,2.81,6.37c6,7.83,13.72,13.69,22.22,18.56,5,2.87,10.29,4.89,16.24,5a15.66,15.66,0,0,1,12.09,5.83,85.93,85.93,0,0,1,14.31,23.12c1.49,3.74,1.78,7.53-.38,11.23-1.5,2.57-3.59,3.88-6.57,3.5a23.09,23.09,0,0,1-4.5-.91c-6.2-2.1-12.33-4.39-18.55-6.44-4.46-1.47-9-2.78-13.55-3.91a10.6,10.6,0,0,0-9.6,1.8c-2.39,1.89-5,1.64-7.41,0-1.18-.8-2.24-1.77-3.35-2.68s-2.3-2-3.56-2.91c-2.05-1.41-3.44-1.22-5.11.65a19,19,0,0,0-2.33,3.22c-2.62,4.62-6.68,6.73-11.86,6.93-1.33.05-2.66.14-4,.07q-13.48-.79-27-1.66a5.58,5.58,0,0,1-1.19-.37c0-1.64,0-3.16,0-4.69,0-4.5.07-9-.12-13.49a24.09,24.09,0,0,0-1.19-6.29c-.91-2.82-3-3.54-5.55-2.1a11.34,11.34,0,0,0-2.9,2.23c-1.9,2.13-3.71,4.35-5.45,6.62s-3.19,4.78-5,7a42.06,42.06,0,0,1-6.41,6.54c-4.45,3.39-8,2.21-10.12-3-.39-.95-.72-1.92-1.2-2.82-1.4-2.63-2.72-2.92-5.11-1.09-1.3,1-2.46,2.16-3.77,3.13-4.88,3.6-10.4,3.17-14.72-1.14a21.71,21.71,0,0,1-5-8.68,43.69,43.69,0,0,1-1.73-17.89c.25-3,.57-5.91.74-8.87a33.1,33.1,0,0,0-.31-4.1,12.08,12.08,0,0,0-2.32,1.78,42.6,42.6,0,0,0-3.66,5.63,29.77,29.77,0,0,0-2.92,11.83c-.51,9.09-6.68,14.75-15.68,14.47A26.61,26.61,0,0,1,711,446c-7.33-1.89-8.68-3.7-8.16-11.2.33-4.79,1-9.57,1.37-14.36.31-3.85,1.81-9.91-.83-12.81-4.76,2.69-5.57,12.82-7.32,17.9-5.94,17.21-24.93,30.46-42.46,25.53-3.59-1-7-2.69-10.57-3.62-11-2.83-22.46,1.66-33,5.9-3.36,1.35-6.85,2.7-10.47,2.62-12.73-.29-12.6-14.12-14.34-22.89-.48-2.39-.32-6.2-1.26-8.34C583.71,424.28,581.07,420.4,580.61,420.27Zm167.59-21c-.48,2,.71,3.08,2.55,2.32a13.19,13.19,0,0,0,7-7.25c.64-1.45-.12-2.35-1.79-2.2a18.6,18.6,0,0,0-3.18.85A9.88,9.88,0,0,0,748.19,399.31ZM543.81,413.69c-2.51,3.72-2.48,10.79.06,14.13C544.82,423,545.19,418.55,543.81,413.69Zm43-122.58c1.8-2.86,1.67-7.07-.44-9.14C584.14,285.11,584.36,288.55,586.82,291.1Z"/><path class="cls-1" d="M470.88,677.16c-1.67,1-1.93,2.62-2.16,4.07a91,91,0,0,0-1.51,11.86c-.27,11.34-.28,22.69-.27,34,0,1.95-.19,4.13,1.84,6a12.76,12.76,0,0,0,1.68-2.55c1-2.79,2.18-5.57,2.59-8.46a145.91,145.91,0,0,0,.18-38.85C472.78,679.6,472.56,679.25,470.88,677.16Z"/><path class="cls-1" d="M414.88,552.9c-2.1.12-3,1.48-3.79,2.72-1.92,3-3.81,6-5.48,9.2a75.76,75.76,0,0,0-7.49,19.7,15.42,15.42,0,0,0-.26,4.84c.18,1.61,1.44,1.92,2.61.75a13.37,13.37,0,0,0,2-2.66,116.83,116.83,0,0,0,12.09-28.06,22.69,22.69,0,0,0,.68-4.22A9.06,9.06,0,0,0,414.88,552.9Z"/><path class="cls-1" d="M664.13,661a3.88,3.88,0,0,0,3.4,2.19c1.26-.17,2.16-1.24,2.21-3.23a20.06,20.06,0,0,0-.6-5.09,2.13,2.13,0,0,0-1.78-1.1C664.83,654.27,662.92,658.72,664.13,661Z"/><path class="cls-1" d="M752.76,393a9.88,9.88,0,0,0-4.57,6.29c-.48,2,.71,3.08,2.55,2.32a13.19,13.19,0,0,0,7-7.25c.64-1.45-.12-2.35-1.79-2.2A18.6,18.6,0,0,0,752.76,393Z"/><path class="cls-1" d="M543.87,427.82c1-4.82,1.32-9.27-.06-14.13C541.29,417.4,541.33,424.48,543.87,427.82Z"/><path class="cls-1" d="M586.38,282c-2.24,3.15-2,6.59.44,9.14C588.62,288.25,588.49,284,586.38,282Z"/></svg>